<svg class="main-svg" xmlns="http://www.w3.org/2000/svg" xmlns:xlink="http://www.w3.org/1999/xlink" width="822" height="405" style="" viewBox="0 0 822 405"><rect x="0" y="0" width="822" height="405" style="fill: rgb(255, 255, 255); fill-opacity: 1;"/><defs id="defs-1dcaa1"><g class="clips"><clipPath id="clip1dcaa1xyplot" class="plotclip"><rect width="623" height="151"/></clipPath><clipPath class="axesclip" id="clip1dcaa1x"><rect x="62" y="0" width="623" height="405"/></clipPath><clipPath class="axesclip" id="clip1dcaa1y"><rect x="0" y="40" width="822" height="151"/></clipPath><clipPath class="axesclip" id="clip1dcaa1xy"><rect x="62" y="40" width="623" height="151"/></clipPath></g><g class="gradients"/><g class="patterns"/></defs><g class="bglayer"><rect class="bg" x="62" y="40" width="623" height="151" style="fill: rgb(229, 236, 246); fill-opacity: 1; stroke-width: 0;"/></g><g class="layer-below"><g class="imagelayer"/><g class="shapelayer"/></g><g class="cartesianlayer"><g class="subplot xy"><g class="layer-subplot"><g class="shapelayer"/><g class="imagelayer"/></g><g class="minor-gridlayer"><g class="x"/><g class="y"/></g><g class="gridlayer"><g class="x"/><g class="y"><path class="ygrid crisp" transform="translate(0,169.69)" d="M62,0h623" style="stroke: rgb(255, 255, 255); stroke-opacity: 1; stroke-width: 1px;"/><path class="ygrid crisp" transform="translate(0,68.42)" d="M62,0h623" style="stroke: rgb(255, 255, 255); stroke-opacity: 1; stroke-width: 1px;"/></g></g><g class="zerolinelayer"><path class="yzl zl crisp" transform="translate(0,119.05)" d="M62,0h623" style="stroke: rgb(255, 255, 255); stroke-opacity: 1; stroke-width: 2px;"/></g><path class="xlines-below"/><path class="ylines-below"/><g class="overlines-below"/><g class="xaxislayer-below"/><g class="yaxislayer-below"/><g class="overaxes-below"/><g class="plot" transform="translate(62,40)" clip-path="url(#clip1dcaa1xyplot)"><g class="boxlayer mlayer"><g class="trace boxes" style="opacity: 1;"><path class="box" d="M15.49,93.15H30.61M15.49,121.2H30.61V57.65H15.49ZM23.05,121.2V143.45M23.05,57.65V10.08M19.27,143.45H26.83M19.27,10.08H26.83" style="vector-effect: none; stroke-width: 2px; stroke: rgb(99, 110, 250); stroke-opacity: 1; fill: rgb(99, 110, 250); fill-opacity: 0.5;"/><path class="box" d="M77.19,71.24H92.31M77.19,91.55H92.31V51.95H77.19ZM84.75,91.55V128.97M84.75,51.95V21.33M80.97,128.97H88.53M80.97,21.33H88.53" style="vector-effect: none; stroke-width: 2px; stroke: rgb(99, 110, 250); stroke-opacity: 1; fill: rgb(99, 110, 250); fill-opacity: 0.5;"/><path class="box" d="M138.89,88.59H154.01M138.89,111.46H154.01V65.58H138.89ZM146.45,111.46V136.27M146.45,65.58V18.62M142.67,136.27H150.23M142.67,18.62H150.23" style="vector-effect: none; stroke-width: 2px; stroke: rgb(99, 110, 250); stroke-opacity: 1; fill: rgb(99, 110, 250); fill-opacity: 0.5;"/><path class="box" d="M200.59,106.05H215.71M200.59,120.16H215.71V49.77H200.59ZM208.15,120.16V141.93M208.15,49.77V11.51M204.37,141.93H211.93M204.37,11.51H211.93" style="vector-effect: none; stroke-width: 2px; stroke: rgb(99, 110, 250); stroke-opacity: 1; fill: rgb(99, 110, 250); fill-opacity: 0.5;"/><path class="box" d="M262.29,68.02H277.41M262.29,103.61H277.41V42.01H262.29ZM269.85,103.61V135.67M269.85,42.01V19.02M266.07,135.67H273.63M266.07,19.02H273.63" style="vector-effect: none; stroke-width: 2px; stroke: rgb(99, 110, 250); stroke-opacity: 1; fill: rgb(99, 110, 250); fill-opacity: 0.5;"/><path class="box" d="M323.99,66.22H339.11M323.99,98.95H339.11V42.52H323.99ZM331.55,98.95V133.39M331.55,42.52V21.6M327.77,133.39H335.33M327.77,21.6H335.33" style="vector-effect: none; stroke-width: 2px; stroke: rgb(99, 110, 250); stroke-opacity: 1; fill: rgb(99, 110, 250); fill-opacity: 0.5;"/><path class="box" d="M385.69,67.72H400.81M385.69,102.71H400.81V40.76H385.69ZM393.25,102.71V131.41M393.25,40.76V10.49M389.47,131.41H397.03M389.47,10.49H397.03" style="vector-effect: none; stroke-width: 2px; stroke: rgb(99, 110, 250); stroke-opacity: 1; fill: rgb(99, 110, 250); fill-opacity: 0.5;"/><path class="box" d="M447.39,66.99H462.51M447.39,112.34H462.51V39.5H447.39ZM454.95,112.34V132.63M454.95,39.5V7.55M451.17,132.63H458.73M451.17,7.55H458.73" style="vector-effect: none; stroke-width: 2px; stroke: rgb(99, 110, 250); stroke-opacity: 1; fill: rgb(99, 110, 250); fill-opacity: 0.5;"/><path class="box" d="M509.09,99.55H524.21M509.09,121.43H524.21V53.7H509.09ZM516.65,121.43V140.38M516.65,53.7V8.58M512.87,140.38H520.43M512.87,8.58H520.43" style="vector-effect: none; stroke-width: 2px; stroke: rgb(99, 110, 250); stroke-opacity: 1; fill: rgb(99, 110, 250); fill-opacity: 0.5;"/><path class="box" d="M570.79,70.3H585.91M570.79,102.08H585.91V41.94H570.79ZM578.35,102.08V139.33M578.35,41.94V18.1M574.57,139.33H582.13M574.57,18.1H582.13" style="vector-effect: none; stroke-width: 2px; stroke: rgb(99, 110, 250); stroke-opacity: 1; fill: rgb(99, 110, 250); fill-opacity: 0.5;"/><g class="points"/><g class="points"/><g class="points"/><g class="points"/><g class="points"/><g class="points"/><g class="points"/><g class="points"/><g class="points"/><g class="points"/></g><g class="trace boxes" style="opacity: 1;"><path class="box" d="M37.09,25.5H52.21M37.09,42.83H52.21V16.72H37.09ZM44.65,42.83V71.84M44.65,16.72V12.92M40.87,71.84H48.43M40.87,12.92H48.43" style="vector-effect: none; stroke-width: 2px; stroke: rgb(239, 85, 59); stroke-opacity: 1; fill: rgb(239, 85, 59); fill-opacity: 0.5;"/><path class="box" d="M98.79,113.06H113.91M98.79,122.05H113.91V98.06H98.79ZM106.35,122.05V136.36M106.35,98.06V71.15M102.57,136.36H110.13M102.57,71.15H110.13" style="vector-effect: none; stroke-width: 2px; stroke: rgb(239, 85, 59); stroke-opacity: 1; fill: rgb(239, 85, 59); fill-opacity: 0.5;"/><path class="box" d="M160.49,42.73H175.61M160.49,57.34H175.61V38.8H160.49ZM168.05,57.34V67.94M168.05,38.8V22.41M164.27,67.94H171.83M164.27,22.41H171.83" style="vector-effect: none; stroke-width: 2px; stroke: rgb(239, 85, 59); stroke-opacity: 1; fill: rgb(239, 85, 59); fill-opacity: 0.5;"/><path class="box" d="M222.19,27.59H237.31M222.19,53.25H237.31V18.91H222.19ZM229.75,53.25V72.66M229.75,18.91V11.37M225.97,72.66H233.53M225.97,11.37H233.53" style="vector-effect: none; stroke-width: 2px; stroke: rgb(239, 85, 59); stroke-opacity: 1; fill: rgb(239, 85, 59); fill-opacity: 0.5;"/><path class="box" d="M283.89,113.7H299.01M283.89,120.98H299.01V97.77H283.89ZM291.45,120.98V127.85M291.45,97.77V82.53M287.67,127.85H295.23M287.67,82.53H295.23" style="vector-effect: none; stroke-width: 2px; stroke: rgb(239, 85, 59); stroke-opacity: 1; fill: rgb(239, 85, 59); fill-opacity: 0.5;"/><path class="box" d="M345.59,110.48H360.71M345.59,118.09H360.71V99.89H345.59ZM353.15,118.09V126.58M353.15,99.89V82.05M349.37,126.58H356.93M349.37,82.05H356.93" style="vector-effect: none; stroke-width: 2px; stroke: rgb(239, 85, 59); stroke-opacity: 1; fill: rgb(239, 85, 59); fill-opacity: 0.5;"/><path class="box" d="M407.29,109.26H422.41M407.29,115.25H422.41V102.5H407.29ZM414.85,115.25V125.82M414.85,102.5V88.72M411.07,125.82H418.63M411.07,88.72H418.63" style="vector-effect: none; stroke-width: 2px; stroke: rgb(239, 85, 59); stroke-opacity: 1; fill: rgb(239, 85, 59); fill-opacity: 0.5;"/><path class="box" d="M468.99,112.76H484.11M468.99,121.44H484.11V99.99H468.99ZM476.55,121.44V133.69M476.55,99.99V80.52M472.77,133.69H480.33M472.77,80.52H480.33" style="vector-effect: none; stroke-width: 2px; stroke: rgb(239, 85, 59); stroke-opacity: 1; fill: rgb(239, 85, 59); fill-opacity: 0.5;"/><path class="box" d="M530.69,31.14H545.81M530.69,59.78H545.81V15.46H530.69ZM538.25,59.78V118.11M538.25,15.46V10.35M534.47,118.11H542.03M534.47,10.35H542.03" style="vector-effect: none; stroke-width: 2px; stroke: rgb(239, 85, 59); stroke-opacity: 1; fill: rgb(239, 85, 59); fill-opacity: 0.5;"/><path class="box" d="M592.39,111.3H607.51M592.39,130.28H607.51V88.94H592.39ZM599.95,130.28V133.93M599.95,88.94V49.1M596.17,133.93H603.73M596.17,49.1H603.73" style="vector-effect: none; stroke-width: 2px; stroke: rgb(239, 85, 59); stroke-opacity: 1; fill: rgb(239, 85, 59); fill-opacity: 0.5;"/><g class="points"><path class="point" transform="translate(44.65,116.85)" d="M3,0A3,3 0 1,1 0,-3A3,3 0 0,1 3,0Z" style="opacity: 1; stroke-width: 0px; fill: rgb(239, 85, 59); fill-opacity: 1;"/><path class="point" transform="translate(44.65,88.82)" d="M3,0A3,3 0 1,1 0,-3A3,3 0 0,1 3,0Z" style="opacity: 1; stroke-width: 0px; fill: rgb(239, 85, 59); fill-opacity: 1;"/></g><g class="points"/><g class="points"><path class="point" transform="translate(168.05,103.8)" d="M3,0A3,3 0 1,1 0,-3A3,3 0 0,1 3,0Z" style="opacity: 1; stroke-width: 0px; fill: rgb(239, 85, 59); fill-opacity: 1;"/><path class="point" transform="translate(168.05,89.24)" d="M3,0A3,3 0 1,1 0,-3A3,3 0 0,1 3,0Z" style="opacity: 1; stroke-width: 0px; fill: rgb(239, 85, 59); fill-opacity: 1;"/></g><g class="points"><path class="point" transform="translate(229.75,113.41)" d="M3,0A3,3 0 1,1 0,-3A3,3 0 0,1 3,0Z" style="opacity: 1; stroke-width: 0px; fill: rgb(239, 85, 59); fill-opacity: 1;"/><path class="point" transform="translate(229.75,108.54)" d="M3,0A3,3 0 1,1 0,-3A3,3 0 0,1 3,0Z" style="opacity: 1; stroke-width: 0px; fill: rgb(239, 85, 59); fill-opacity: 1;"/></g><g class="points"><path class="point" transform="translate(291.45,59.34)" d="M3,0A3,3 0 1,1 0,-3A3,3 0 0,1 3,0Z" style="opacity: 1; stroke-width: 0px; fill: rgb(239, 85, 59); fill-opacity: 1;"/></g><g class="points"><path class="point" transform="translate(353.15,68.11)" d="M3,0A3,3 0 1,1 0,-3A3,3 0 0,1 3,0Z" style="opacity: 1; stroke-width: 0px; fill: rgb(239, 85, 59); fill-opacity: 1;"/></g><g class="points"><path class="point" transform="translate(414.85,76.74)" d="M3,0A3,3 0 1,1 0,-3A3,3 0 0,1 3,0Z" style="opacity: 1; stroke-width: 0px; fill: rgb(239, 85, 59); fill-opacity: 1;"/></g><g class="points"/><g class="points"><path class="point" transform="translate(538.25,128.84)" d="M3,0A3,3 0 1,1 0,-3A3,3 0 0,1 3,0Z" style="opacity: 1; stroke-width: 0px; fill: rgb(239, 85, 59); fill-opacity: 1;"/></g><g class="points"/></g></g></g><g class="overplot"/><path class="xlines-above crisp" d="M0,0" style="fill: none;"/><path class="ylines-above crisp" d="M0,0" style="fill: none;"/><g class="overlines-above"/><g class="xaxislayer-above"><g class="xtick"><text text-anchor="start" x="0" y="204" transform="translate(95.85,0) rotate(29.999999999999996,0,198)" style="font-family: 'Open Sans', verdana, arial, sans-serif; font-size: 12px; fill: rgb(42, 63, 95); fill-opacity: 1; white-space: pre; opacity: 1;">G alpha (i) signalling events</text></g><g class="xtick"><text text-anchor="start" x="0" y="204" transform="translate(157.55,0) rotate(29.999999999999996,0,198)" style="font-family: 'Open Sans', verdana, arial, sans-serif; font-size: 12px; fill: rgb(42, 63, 95); fill-opacity: 1; white-space: pre; opacity: 1;">Metabolism of lipids</text></g><g class="xtick"><text text-anchor="start" x="0" y="204" transform="translate(219.25,0) rotate(29.999999999999996,0,198)" style="font-family: 'Open Sans', verdana, arial, sans-serif; font-size: 12px; fill: rgb(42, 63, 95); fill-opacity: 1; white-space: pre; opacity: 1;">Sensory Perception</text></g><g class="xtick"><text text-anchor="start" x="0" y="204" transform="translate(280.95,0) rotate(29.999999999999996,0,198)" style="font-family: 'Open Sans', verdana, arial, sans-serif; font-size: 12px; fill: rgb(42, 63, 95); fill-opacity: 1; white-space: pre; opacity: 1;">Hydroxycarboxylic acid-binding receptors</text></g><g class="xtick"><text text-anchor="start" x="0" y="204" transform="translate(342.65,0) rotate(29.999999999999996,0,198)" style="font-family: 'Open Sans', verdana, arial, sans-serif; font-size: 12px; fill: rgb(42, 63, 95); fill-opacity: 1; white-space: pre; opacity: 1;">SLC-mediated transmembrane transport</text></g><g class="xtick"><text text-anchor="start" x="0" y="204" transform="translate(404.35,0) rotate(29.999999999999996,0,198)" style="font-family: 'Open Sans', verdana, arial, sans-serif; font-size: 12px; fill: rgb(42, 63, 95); fill-opacity: 1; white-space: pre; opacity: 1;">Transport of small molecules</text></g><g class="xtick"><text text-anchor="start" x="0" y="204" transform="translate(466.05,0) rotate(29.999999999999996,0,198)" style="font-family: 'Open Sans', verdana, arial, sans-serif; font-size: 12px; fill: rgb(42, 63, 95); fill-opacity: 1; white-space: pre; opacity: 1;">Disease</text></g><g class="xtick"><text text-anchor="start" x="0" y="204" transform="translate(527.75,0) rotate(29.999999999999996,0,198)" style="font-family: 'Open Sans', verdana, arial, sans-serif; font-size: 12px; fill: rgb(42, 63, 95); fill-opacity: 1; white-space: pre; opacity: 1;">Transport of vitamins, nucleosides, and related molecules</text></g><g class="xtick"><text text-anchor="start" x="0" y="204" transform="translate(589.45,0) rotate(29.999999999999996,0,198)" style="font-family: 'Open Sans', verdana, arial, sans-serif; font-size: 12px; fill: rgb(42, 63, 95); fill-opacity: 1; white-space: pre; opacity: 1;">Organic cation/anion/zwitterion transport</text></g><g class="xtick"><text text-anchor="start" x="0" y="204" transform="translate(651.15,0) rotate(29.999999999999996,0,198)" style="font-family: 'Open Sans', verdana, arial, sans-serif; font-size: 12px; fill: rgb(42, 63, 95); fill-opacity: 1; white-space: pre; opacity: 1;">Olfactory Signaling Pathway</text></g></g><g class="yaxislayer-above"><g class="ytick"><text text-anchor="end" x="61" y="4.199999999999999" transform="translate(0,169.69)" style="font-family: 'Open Sans', verdana, arial, sans-serif; font-size: 12px; fill: rgb(42, 63, 95); fill-opacity: 1; white-space: pre; opacity: 1;">−0.5</text></g><g class="ytick"><text text-anchor="end" x="61" y="4.199999999999999" style="font-family: 'Open Sans', verdana, arial, sans-serif; font-size: 12px; fill: rgb(42, 63, 95); fill-opacity: 1; white-space: pre; opacity: 1;" transform="translate(0,119.05)">0</text></g><g class="ytick"><text text-anchor="end" x="61" y="4.199999999999999" style="font-family: 'Open Sans', verdana, arial, sans-serif; font-size: 12px; fill: rgb(42, 63, 95); fill-opacity: 1; white-space: pre; opacity: 1;" transform="translate(0,68.42)">0.5</text></g></g><g class="overaxes-above"/></g></g><g class="polarlayer"/><g class="smithlayer"/><g class="ternarylayer"/><g class="geolayer"/><g class="funnelarealayer"/><g class="pielayer"/><g class="iciclelayer"/><g class="treemaplayer"/><g class="sunburstlayer"/><g class="glimages"/><defs id="topdefs-1dcaa1"><g class="clips"/><clipPath id="legend1dcaa1"><rect width="99" height="67" x="0" y="0"/></clipPath></defs><g class="layer-above"><g class="imagelayer"/><g class="shapelayer"/></g><g class="infolayer"><g class="legend" pointer-events="all" transform="translate(697.46,40)"><rect class="bg" shape-rendering="crispEdges" width="99" height="67" x="0" y="0" style="stroke: rgb(68, 68, 68); stroke-opacity: 1; fill: rgb(255, 255, 255); fill-opacity: 1; stroke-width: 0px;"/><g class="scrollbox" transform="" clip-path="url(#legend1dcaa1)"><text class="legendtitletext" text-anchor="start" x="2" y="18.2" style="font-family: 'Open Sans', verdana, arial, sans-serif; font-size: 14px; fill: rgb(42, 63, 95); fill-opacity: 1; white-space: pre;">Group_Label</text><g class="groups" transform=""><g class="traces" transform="translate(0,32.7)" style="opacity: 1;"><text class="legendtext" text-anchor="start" x="40" y="4.680000000000001" style="font-family: 'Open Sans', verdana, arial, sans-serif; font-size: 12px; fill: rgb(42, 63, 95); fill-opacity: 1; white-space: pre;">COVID-19</text><g class="layers" style="opacity: 1;"><g class="legendfill"/><g class="legendlines"/><g class="legendsymbols"><g class="legendpoints"><path class="legendbox" d="M6,6H-6V-6H6Z" transform="translate(20,0)" style="stroke-width: 2px; fill: rgb(99, 110, 250); fill-opacity: 0.5; stroke: rgb(99, 110, 250); stroke-opacity: 1;"/></g></g></g><rect class="legendtoggle" x="0" y="-9.5" width="93.875" height="19" style="fill: rgb(0, 0, 0); fill-opacity: 0;"/></g></g><g class="groups" transform=""><g class="traces" transform="translate(0,51.7)" style="opacity: 1;"><text class="legendtext" text-anchor="start" x="40" y="4.680000000000001" style="font-family: 'Open Sans', verdana, arial, sans-serif; font-size: 12px; fill: rgb(42, 63, 95); fill-opacity: 1; white-space: pre;">HEALTHY</text><g class="layers" style="opacity: 1;"><g class="legendfill"/><g class="legendlines"/><g class="legendsymbols"><g class="legendpoints"><path class="legendbox" d="M6,6H-6V-6H6Z" transform="translate(20,0)" style="stroke-width: 2px; fill: rgb(239, 85, 59); fill-opacity: 0.5; stroke: rgb(239, 85, 59); stroke-opacity: 1;"/></g></g></g><rect class="legendtoggle" x="0" y="-9.5" width="93.875" height="19" style="fill: rgb(0, 0, 0); fill-opacity: 0;"/></g></g></g><rect class="scrollbar" rx="20" ry="3" width="0" height="0" x="0" y="0" style="fill: rgb(128, 139, 164); fill-opacity: 1;"/></g><g class="g-gtitle"><text class="gtitle" x="411" y="20" text-anchor="middle" dy="0em" style="font-family: 'Open Sans', verdana, arial, sans-serif; font-size: 17px; fill: rgb(42, 63, 95); opacity: 1; font-weight: normal; white-space: pre;">Box Plot of Top 10 Differentially Significant Pathways</text></g><g class="g-xtitle"><text class="xtitle" x="373.5" y="392.10859375" text-anchor="middle" style="font-family: 'Open Sans', verdana, arial, sans-serif; font-size: 14px; fill: rgb(42, 63, 95); opacity: 1; font-weight: normal; white-space: pre;">Pathway</text></g><g class="g-ytitle" transform="translate(2.0810546875,0)"><text class="ytitle" transform="rotate(-90,12.918750000000003,115.5)" x="12.918750000000003" y="115.5" text-anchor="middle" style="font-family: 'Open Sans', verdana, arial, sans-serif; font-size: 14px; fill: rgb(42, 63, 95); opacity: 1; font-weight: normal; white-space: pre;">KPCA Pathway Score</text></g></g></svg>