<svg class="main-svg" xmlns="http://www.w3.org/2000/svg" xmlns:xlink="http://www.w3.org/1999/xlink" width="822" height="515" style="" viewBox="0 0 822 515"><rect x="0" y="0" width="822" height="515" style="fill: rgb(255, 255, 255); fill-opacity: 1;"/><defs id="defs-d3915a"><g class="clips"><clipPath id="clipd3915axyplot" class="plotclip"><rect width="646" height="254"/></clipPath><clipPath class="axesclip" id="clipd3915ax"><rect x="52" y="0" width="646" height="515"/></clipPath><clipPath class="axesclip" id="clipd3915ay"><rect x="0" y="40" width="822" height="254"/></clipPath><clipPath class="axesclip" id="clipd3915axy"><rect x="52" y="40" width="646" height="254"/></clipPath></g><g class="gradients"/><g class="patterns"/></defs><g class="bglayer"><rect class="bg" x="52" y="40" width="646" height="254" style="fill: rgb(229, 236, 246); fill-opacity: 1; stroke-width: 0;"/></g><g class="layer-below"><g class="imagelayer"/><g class="shapelayer"/></g><g class="cartesianlayer"><g class="subplot xy"><g class="layer-subplot"><g class="shapelayer"/><g class="imagelayer"/></g><g class="minor-gridlayer"><g class="x"/><g class="y"/></g><g class="gridlayer"><g class="x"/><g class="y"><path class="ygrid crisp" transform="translate(0,265.14)" d="M52,0h646" style="stroke: rgb(255, 255, 255); stroke-opacity: 1; stroke-width: 1px;"/><path class="ygrid crisp" transform="translate(0,221.63)" d="M52,0h646" style="stroke: rgb(255, 255, 255); stroke-opacity: 1; stroke-width: 1px;"/><path class="ygrid crisp" transform="translate(0,134.62)" d="M52,0h646" style="stroke: rgb(255, 255, 255); stroke-opacity: 1; stroke-width: 1px;"/><path class="ygrid crisp" transform="translate(0,91.11)" d="M52,0h646" style="stroke: rgb(255, 255, 255); stroke-opacity: 1; stroke-width: 1px;"/><path class="ygrid crisp" transform="translate(0,47.61)" d="M52,0h646" style="stroke: rgb(255, 255, 255); stroke-opacity: 1; stroke-width: 1px;"/></g></g><g class="zerolinelayer"><path class="yzl zl crisp" transform="translate(0,178.13)" d="M52,0h646" style="stroke: rgb(255, 255, 255); stroke-opacity: 1; stroke-width: 2px;"/></g><path class="xlines-below"/><path class="ylines-below"/><g class="overlines-below"/><g class="xaxislayer-below"/><g class="yaxislayer-below"/><g class="overaxes-below"/><g class="plot" transform="translate(52,40)" clip-path="url(#clipd3915axyplot)"><g class="boxlayer mlayer"><g class="trace boxes" style="opacity: 1;"><path class="box" d="M15.96,162.17H31.64M15.96,173H31.64V144.76H15.96ZM23.8,173V186.64M23.8,144.76V102.57M19.88,186.64H27.72M19.88,102.57H27.72" style="vector-effect: none; stroke-width: 2px; stroke: rgb(99, 110, 250); stroke-opacity: 1; fill: rgb(99, 110, 250); fill-opacity: 0.5;"/><path class="box" d="M79.96,162.57H95.64M79.96,179.86H95.64V133.58H79.96ZM87.8,179.86V192.83M87.8,133.58V84.76M83.88,192.83H91.72M83.88,84.76H91.72" style="vector-effect: none; stroke-width: 2px; stroke: rgb(99, 110, 250); stroke-opacity: 1; fill: rgb(99, 110, 250); fill-opacity: 0.5;"/><path class="box" d="M143.96,155.01H159.64M143.96,163.32H159.64V146.93H143.96ZM151.8,163.32V175.44M151.8,146.93V134.36M147.88,175.44H155.72M147.88,134.36H155.72" style="vector-effect: none; stroke-width: 2px; stroke: rgb(99, 110, 250); stroke-opacity: 1; fill: rgb(99, 110, 250); fill-opacity: 0.5;"/><path class="box" d="M207.96,154.44H223.64M207.96,163.44H223.64V142H207.96ZM215.8,163.44V188.35M215.8,142V115.03M211.88,188.35H219.72M211.88,115.03H219.72" style="vector-effect: none; stroke-width: 2px; stroke: rgb(99, 110, 250); stroke-opacity: 1; fill: rgb(99, 110, 250); fill-opacity: 0.5;"/><path class="box" d="M271.96,155.68H287.64M271.96,180.55H287.64V127.74H271.96ZM279.8,180.55V208.31M279.8,127.74V77.49M275.88,208.31H283.72M275.88,77.49H283.72" style="vector-effect: none; stroke-width: 2px; stroke: rgb(99, 110, 250); stroke-opacity: 1; fill: rgb(99, 110, 250); fill-opacity: 0.5;"/><path class="box" d="M335.96,163.21H351.64M335.96,176.26H351.64V138.58H335.96ZM343.8,176.26V190.14M343.8,138.58V92.64M339.88,190.14H347.72M339.88,92.64H347.72" style="vector-effect: none; stroke-width: 2px; stroke: rgb(99, 110, 250); stroke-opacity: 1; fill: rgb(99, 110, 250); fill-opacity: 0.5;"/><path class="box" d="M399.96,156.08H415.64M399.96,181.08H415.64V131.68H399.96ZM407.8,181.08V241.3M407.8,131.68V73.08M403.88,241.3H411.72M403.88,73.08H411.72" style="vector-effect: none; stroke-width: 2px; stroke: rgb(99, 110, 250); stroke-opacity: 1; fill: rgb(99, 110, 250); fill-opacity: 0.5;"/><path class="box" d="M463.96,121.74H479.64M463.96,149.71H479.64V98.69H463.96ZM471.8,149.71V185.64M471.8,98.69V38.51M467.88,185.64H475.72M467.88,38.51H475.72" style="vector-effect: none; stroke-width: 2px; stroke: rgb(99, 110, 250); stroke-opacity: 1; fill: rgb(99, 110, 250); fill-opacity: 0.5;"/><path class="box" d="M527.96,153.76H543.64M527.96,178.73H543.64V132.33H527.96ZM535.8,178.73V215.79M535.8,132.33V77.24M531.88,215.79H539.72M531.88,77.24H539.72" style="vector-effect: none; stroke-width: 2px; stroke: rgb(99, 110, 250); stroke-opacity: 1; fill: rgb(99, 110, 250); fill-opacity: 0.5;"/><path class="box" d="M591.96,120.15H607.64M591.96,148.01H607.64V95.28H591.96ZM599.8,148.01V189.82M599.8,95.28V47.51M595.88,189.82H603.72M595.88,47.51H603.72" style="vector-effect: none; stroke-width: 2px; stroke: rgb(99, 110, 250); stroke-opacity: 1; fill: rgb(99, 110, 250); fill-opacity: 0.5;"/><g class="points"><path class="point" transform="translate(23.8,101.39)" d="M3,0A3,3 0 1,1 0,-3A3,3 0 0,1 3,0Z" style="opacity: 1; stroke-width: 0px; fill: rgb(99, 110, 250); fill-opacity: 1;"/><path class="point" transform="translate(23.8,81.73)" d="M3,0A3,3 0 1,1 0,-3A3,3 0 0,1 3,0Z" style="opacity: 1; stroke-width: 0px; fill: rgb(99, 110, 250); fill-opacity: 1;"/><path class="point" transform="translate(23.8,78.45)" d="M3,0A3,3 0 1,1 0,-3A3,3 0 0,1 3,0Z" style="opacity: 1; stroke-width: 0px; fill: rgb(99, 110, 250); fill-opacity: 1;"/></g><g class="points"/><g class="points"><path class="point" transform="translate(151.8,191.2)" d="M3,0A3,3 0 1,1 0,-3A3,3 0 0,1 3,0Z" style="opacity: 1; stroke-width: 0px; fill: rgb(99, 110, 250); fill-opacity: 1;"/><path class="point" transform="translate(151.8,191.2)" d="M3,0A3,3 0 1,1 0,-3A3,3 0 0,1 3,0Z" style="opacity: 1; stroke-width: 0px; fill: rgb(99, 110, 250); fill-opacity: 1;"/><path class="point" transform="translate(151.8,191.2)" d="M3,0A3,3 0 1,1 0,-3A3,3 0 0,1 3,0Z" style="opacity: 1; stroke-width: 0px; fill: rgb(99, 110, 250); fill-opacity: 1;"/><path class="point" transform="translate(151.8,120.24)" d="M3,0A3,3 0 1,1 0,-3A3,3 0 0,1 3,0Z" style="opacity: 1; stroke-width: 0px; fill: rgb(99, 110, 250); fill-opacity: 1;"/><path class="point" transform="translate(151.8,118.23)" d="M3,0A3,3 0 1,1 0,-3A3,3 0 0,1 3,0Z" style="opacity: 1; stroke-width: 0px; fill: rgb(99, 110, 250); fill-opacity: 1;"/><path class="point" transform="translate(151.8,109.55)" d="M3,0A3,3 0 1,1 0,-3A3,3 0 0,1 3,0Z" style="opacity: 1; stroke-width: 0px; fill: rgb(99, 110, 250); fill-opacity: 1;"/><path class="point" transform="translate(151.8,95.16)" d="M3,0A3,3 0 1,1 0,-3A3,3 0 0,1 3,0Z" style="opacity: 1; stroke-width: 0px; fill: rgb(99, 110, 250); fill-opacity: 1;"/></g><g class="points"><path class="point" transform="translate(215.8,198.1)" d="M3,0A3,3 0 1,1 0,-3A3,3 0 0,1 3,0Z" style="opacity: 1; stroke-width: 0px; fill: rgb(99, 110, 250); fill-opacity: 1;"/><path class="point" transform="translate(215.8,195.78)" d="M3,0A3,3 0 1,1 0,-3A3,3 0 0,1 3,0Z" style="opacity: 1; stroke-width: 0px; fill: rgb(99, 110, 250); fill-opacity: 1;"/><path class="point" transform="translate(215.8,101.89)" d="M3,0A3,3 0 1,1 0,-3A3,3 0 0,1 3,0Z" style="opacity: 1; stroke-width: 0px; fill: rgb(99, 110, 250); fill-opacity: 1;"/><path class="point" transform="translate(215.8,100.96)" d="M3,0A3,3 0 1,1 0,-3A3,3 0 0,1 3,0Z" style="opacity: 1; stroke-width: 0px; fill: rgb(99, 110, 250); fill-opacity: 1;"/></g><g class="points"/><g class="points"><path class="point" transform="translate(343.8,73)" d="M3,0A3,3 0 1,1 0,-3A3,3 0 0,1 3,0Z" style="opacity: 1; stroke-width: 0px; fill: rgb(99, 110, 250); fill-opacity: 1;"/><path class="point" transform="translate(343.8,70.73)" d="M3,0A3,3 0 1,1 0,-3A3,3 0 0,1 3,0Z" style="opacity: 1; stroke-width: 0px; fill: rgb(99, 110, 250); fill-opacity: 1;"/><path class="point" transform="translate(343.8,68.26)" d="M3,0A3,3 0 1,1 0,-3A3,3 0 0,1 3,0Z" style="opacity: 1; stroke-width: 0px; fill: rgb(99, 110, 250); fill-opacity: 1;"/><path class="point" transform="translate(343.8,54.92)" d="M3,0A3,3 0 1,1 0,-3A3,3 0 0,1 3,0Z" style="opacity: 1; stroke-width: 0px; fill: rgb(99, 110, 250); fill-opacity: 1;"/></g><g class="points"/><g class="points"/><g class="points"/><g class="points"/></g><g class="trace boxes" style="opacity: 1;"><path class="box" d="M38.36,79.96H54.04M38.36,99.88H54.04V57.72H38.36ZM46.2,99.88V158.99M46.2,57.72V46.59M42.28,158.99H50.12M42.28,46.59H50.12" style="vector-effect: none; stroke-width: 2px; stroke: rgb(239, 85, 59); stroke-opacity: 1; fill: rgb(239, 85, 59); fill-opacity: 0.5;"/><path class="box" d="M102.36,76.02H118.04M102.36,101H118.04V62.18H102.36ZM110.2,101V147.77M110.2,62.18V45.56M106.28,147.77H114.12M106.28,45.56H114.12" style="vector-effect: none; stroke-width: 2px; stroke: rgb(239, 85, 59); stroke-opacity: 1; fill: rgb(239, 85, 59); fill-opacity: 0.5;"/><path class="box" d="M166.36,32.73H182.04M166.36,146.51H182.04V29.68H166.36ZM174.2,146.51V156.32M174.2,29.68V25.17M170.28,156.32H178.12M170.28,25.17H178.12" style="vector-effect: none; stroke-width: 2px; stroke: rgb(239, 85, 59); stroke-opacity: 1; fill: rgb(239, 85, 59); fill-opacity: 0.5;"/><path class="box" d="M230.36,37.77H246.04M230.36,140.64H246.04V33.98H230.36ZM238.2,140.64V183.76M238.2,33.98V26.98M234.28,183.76H242.12M234.28,26.98H242.12" style="vector-effect: none; stroke-width: 2px; stroke: rgb(239, 85, 59); stroke-opacity: 1; fill: rgb(239, 85, 59); fill-opacity: 0.5;"/><path class="box" d="M294.36,80.18H310.04M294.36,106.34H310.04V47.93H294.36ZM302.2,106.34V142.38M302.2,47.93V12.7M298.28,142.38H306.12M298.28,12.7H306.12" style="vector-effect: none; stroke-width: 2px; stroke: rgb(239, 85, 59); stroke-opacity: 1; fill: rgb(239, 85, 59); fill-opacity: 0.5;"/><path class="box" d="M358.36,84.72H374.04M358.36,104.77H374.04V50.24H358.36ZM366.2,104.77V153.79M366.2,50.24V19.28M362.28,153.79H370.12M362.28,19.28H370.12" style="vector-effect: none; stroke-width: 2px; stroke: rgb(239, 85, 59); stroke-opacity: 1; fill: rgb(239, 85, 59); fill-opacity: 0.5;"/><path class="box" d="M422.36,76.89H438.04M422.36,97.24H438.04V64.12H422.36ZM430.2,97.24V114.09M430.2,64.12V54.67M426.28,114.09H434.12M426.28,54.67H434.12" style="vector-effect: none; stroke-width: 2px; stroke: rgb(239, 85, 59); stroke-opacity: 1; fill: rgb(239, 85, 59); fill-opacity: 0.5;"/><path class="box" d="M486.36,196.24H502.04M486.36,199.93H502.04V187.28H486.36ZM494.2,199.93V206.38M494.2,187.28V177.72M490.28,206.38H498.12M490.28,177.72H498.12" style="vector-effect: none; stroke-width: 2px; stroke: rgb(239, 85, 59); stroke-opacity: 1; fill: rgb(239, 85, 59); fill-opacity: 0.5;"/><path class="box" d="M550.36,71.11H566.04M550.36,102.12H566.04V57.84H550.36ZM558.2,102.12V135.41M558.2,57.84V41.13M554.28,135.41H562.12M554.28,41.13H562.12" style="vector-effect: none; stroke-width: 2px; stroke: rgb(239, 85, 59); stroke-opacity: 1; fill: rgb(239, 85, 59); fill-opacity: 0.5;"/><path class="box" d="M614.36,193.86H630.04M614.36,213.18H630.04V177.46H614.36ZM622.2,213.18V239.55M622.2,177.46V140.53M618.28,239.55H626.12M618.28,140.53H626.12" style="vector-effect: none; stroke-width: 2px; stroke: rgb(239, 85, 59); stroke-opacity: 1; fill: rgb(239, 85, 59); fill-opacity: 0.5;"/><g class="points"/><g class="points"/><g class="points"/><g class="points"/><g class="points"/><g class="points"/><g class="points"/><g class="points"/><g class="points"><path class="point" transform="translate(558.2,177.29)" d="M3,0A3,3 0 1,1 0,-3A3,3 0 0,1 3,0Z" style="opacity: 1; stroke-width: 0px; fill: rgb(239, 85, 59); fill-opacity: 1;"/></g><g class="points"/></g></g></g><g class="overplot"/><path class="xlines-above crisp" d="M0,0" style="fill: none;"/><path class="ylines-above crisp" d="M0,0" style="fill: none;"/><g class="overlines-above"/><g class="xaxislayer-above"><g class="xtick"><text text-anchor="start" x="0" y="307" transform="translate(87,0) rotate(29.999999999999996,0,301)" style="font-family: 'Open Sans', verdana, arial, sans-serif; font-size: 12px; fill: rgb(42, 63, 95); fill-opacity: 1; white-space: pre; opacity: 1;">DG(20:5(5Z,8Z,11Z,14Z,17Z)/22:6(4Z,7Z,10Z,13Z,16Z,19Z)/0:0)</text></g><g class="xtick"><text text-anchor="start" x="0" y="307" transform="translate(151,0) rotate(29.999999999999996,0,301)" style="font-family: 'Open Sans', verdana, arial, sans-serif; font-size: 12px; fill: rgb(42, 63, 95); fill-opacity: 1; white-space: pre; opacity: 1;">diacylglycerol 41:5</text></g><g class="xtick"><text text-anchor="start" x="0" y="307" transform="translate(215,0) rotate(29.999999999999996,0,301)" style="font-family: 'Open Sans', verdana, arial, sans-serif; font-size: 12px; fill: rgb(42, 63, 95); fill-opacity: 1; white-space: pre; opacity: 1;">2-palmitoylglycerol</text></g><g class="xtick"><text text-anchor="start" x="0" y="307" transform="translate(279,0) rotate(29.999999999999996,0,301)" style="font-family: 'Open Sans', verdana, arial, sans-serif; font-size: 12px; fill: rgb(42, 63, 95); fill-opacity: 1; white-space: pre; opacity: 1;">1-monopalmitoylglycerol</text></g><g class="xtick"><text text-anchor="start" x="0" y="307" transform="translate(343,0) rotate(29.999999999999996,0,301)" style="font-family: 'Open Sans', verdana, arial, sans-serif; font-size: 12px; fill: rgb(42, 63, 95); fill-opacity: 1; white-space: pre; opacity: 1;">threonic acid</text></g><g class="xtick"><text text-anchor="start" x="0" y="307" transform="translate(407,0) rotate(29.999999999999996,0,301)" style="font-family: 'Open Sans', verdana, arial, sans-serif; font-size: 12px; fill: rgb(42, 63, 95); fill-opacity: 1; white-space: pre; opacity: 1;">phosphatidylethanolamine O-18:2_18:2</text></g><g class="xtick"><text text-anchor="start" x="0" y="307" transform="translate(471,0) rotate(29.999999999999996,0,301)" style="font-family: 'Open Sans', verdana, arial, sans-serif; font-size: 12px; fill: rgb(42, 63, 95); fill-opacity: 1; white-space: pre; opacity: 1;">lysophosphatidylcholine 18:2</text></g><g class="xtick"><text text-anchor="start" x="0" y="307" transform="translate(535,0) rotate(29.999999999999996,0,301)" style="font-family: 'Open Sans', verdana, arial, sans-serif; font-size: 12px; fill: rgb(42, 63, 95); fill-opacity: 1; white-space: pre; opacity: 1;">fatty acid 20:4</text></g><g class="xtick"><text text-anchor="start" x="0" y="307" transform="translate(599,0) rotate(29.999999999999996,0,301)" style="font-family: 'Open Sans', verdana, arial, sans-serif; font-size: 12px; fill: rgb(42, 63, 95); fill-opacity: 1; white-space: pre; opacity: 1;">phosphatidylethanolamine O-18:2_20:4</text></g><g class="xtick"><text text-anchor="start" x="0" y="307" transform="translate(663,0) rotate(29.999999999999996,0,301)" style="font-family: 'Open Sans', verdana, arial, sans-serif; font-size: 12px; fill: rgb(42, 63, 95); fill-opacity: 1; white-space: pre; opacity: 1;">fatty acid 18:1</text></g></g><g class="yaxislayer-above"><g class="ytick"><text text-anchor="end" x="51" y="4.199999999999999" transform="translate(0,265.14)" style="font-family: 'Open Sans', verdana, arial, sans-serif; font-size: 12px; fill: rgb(42, 63, 95); fill-opacity: 1; white-space: pre; opacity: 1;">−2</text></g><g class="ytick"><text text-anchor="end" x="51" y="4.199999999999999" style="font-family: 'Open Sans', verdana, arial, sans-serif; font-size: 12px; fill: rgb(42, 63, 95); fill-opacity: 1; white-space: pre; opacity: 1;" transform="translate(0,221.63)">−1</text></g><g class="ytick"><text text-anchor="end" x="51" y="4.199999999999999" style="font-family: 'Open Sans', verdana, arial, sans-serif; font-size: 12px; fill: rgb(42, 63, 95); fill-opacity: 1; white-space: pre; opacity: 1;" transform="translate(0,178.13)">0</text></g><g class="ytick"><text text-anchor="end" x="51" y="4.199999999999999" style="font-family: 'Open Sans', verdana, arial, sans-serif; font-size: 12px; fill: rgb(42, 63, 95); fill-opacity: 1; white-space: pre; opacity: 1;" transform="translate(0,134.62)">1</text></g><g class="ytick"><text text-anchor="end" x="51" y="4.199999999999999" style="font-family: 'Open Sans', verdana, arial, sans-serif; font-size: 12px; fill: rgb(42, 63, 95); fill-opacity: 1; white-space: pre; opacity: 1;" transform="translate(0,91.11)">2</text></g><g class="ytick"><text text-anchor="end" x="51" y="4.199999999999999" style="font-family: 'Open Sans', verdana, arial, sans-serif; font-size: 12px; fill: rgb(42, 63, 95); fill-opacity: 1; white-space: pre; opacity: 1;" transform="translate(0,47.61)">3</text></g></g><g class="overaxes-above"/></g></g><g class="polarlayer"/><g class="smithlayer"/><g class="ternarylayer"/><g class="geolayer"/><g class="funnelarealayer"/><g class="pielayer"/><g class="iciclelayer"/><g class="treemaplayer"/><g class="sunburstlayer"/><g class="glimages"/><defs id="topdefs-d3915a"><g class="clips"/><clipPath id="legendd3915a"><rect width="99" height="67" x="0" y="0"/></clipPath></defs><g class="layer-above"><g class="imagelayer"/><g class="shapelayer"/></g><g class="infolayer"><g class="legend" pointer-events="all" transform="translate(710.92,40)"><rect class="bg" shape-rendering="crispEdges" width="99" height="67" x="0" y="0" style="stroke: rgb(68, 68, 68); stroke-opacity: 1; fill: rgb(255, 255, 255); fill-opacity: 1; stroke-width: 0px;"/><g class="scrollbox" transform="" clip-path="url(#legendd3915a)"><text class="legendtitletext" text-anchor="start" x="2" y="18.2" style="font-family: 'Open Sans', verdana, arial, sans-serif; font-size: 14px; fill: rgb(42, 63, 95); fill-opacity: 1; white-space: pre;">Group_Label</text><g class="groups" transform=""><g class="traces" transform="translate(0,32.7)" style="opacity: 1;"><text class="legendtext" text-anchor="start" x="40" y="4.680000000000001" style="font-family: 'Open Sans', verdana, arial, sans-serif; font-size: 12px; fill: rgb(42, 63, 95); fill-opacity: 1; white-space: pre;">COVID-19</text><g class="layers" style="opacity: 1;"><g class="legendfill"/><g class="legendlines"/><g class="legendsymbols"><g class="legendpoints"><path class="legendbox" d="M6,6H-6V-6H6Z" transform="translate(20,0)" style="stroke-width: 2px; fill: rgb(99, 110, 250); fill-opacity: 0.5; stroke: rgb(99, 110, 250); stroke-opacity: 1;"/></g></g></g><rect class="legendtoggle" x="0" y="-9.5" width="93.875" height="19" style="fill: rgb(0, 0, 0); fill-opacity: 0;"/></g></g><g class="groups" transform=""><g class="traces" transform="translate(0,51.7)" style="opacity: 1;"><text class="legendtext" text-anchor="start" x="40" y="4.680000000000001" style="font-family: 'Open Sans', verdana, arial, sans-serif; font-size: 12px; fill: rgb(42, 63, 95); fill-opacity: 1; white-space: pre;">HEALTHY</text><g class="layers" style="opacity: 1;"><g class="legendfill"/><g class="legendlines"/><g class="legendsymbols"><g class="legendpoints"><path class="legendbox" d="M6,6H-6V-6H6Z" transform="translate(20,0)" style="stroke-width: 2px; fill: rgb(239, 85, 59); fill-opacity: 0.5; stroke: rgb(239, 85, 59); stroke-opacity: 1;"/></g></g></g><rect class="legendtoggle" x="0" y="-9.5" width="93.875" height="19" style="fill: rgb(0, 0, 0); fill-opacity: 0;"/></g></g></g><rect class="scrollbar" rx="20" ry="3" width="0" height="0" x="0" y="0" style="fill: rgb(128, 139, 164); fill-opacity: 1;"/></g><g class="g-gtitle"><text class="gtitle" x="411" y="20" text-anchor="middle" dy="0em" style="font-family: 'Open Sans', verdana, arial, sans-serif; font-size: 17px; fill: rgb(42, 63, 95); opacity: 1; font-weight: normal; white-space: pre;">Box Plot of Top 10 Differentially Abundant Metabolites</text></g><g class="g-xtitle"><text class="xtitle" x="375" y="502.88203125" text-anchor="middle" style="font-family: 'Open Sans', verdana, arial, sans-serif; font-size: 14px; fill: rgb(42, 63, 95); opacity: 1; font-weight: normal; white-space: pre;">Metabolite</text></g><g class="g-ytitle" transform="translate(2.0341796875,0)"><text class="ytitle" transform="rotate(-90,12.965625000000003,167)" x="12.965625000000003" y="167" text-anchor="middle" style="font-family: 'Open Sans', verdana, arial, sans-serif; font-size: 14px; fill: rgb(42, 63, 95); opacity: 1; font-weight: normal; white-space: pre;">Metabolite Intensity</text></g></g></svg>